<?xml version="1.0" standalone="no"?>
<!DOCTYPE svg PUBLIC "-//W3C//DTD SVG 20010904//EN"
 "http://www.w3.org/TR/2001/REC-SVG-20010904/DTD/svg10.dtd">
<svg version="1.0" xmlns="http://www.w3.org/2000/svg"
 width="100.000000pt" height="30.000000pt" viewBox="0 0 246.000000 130.000000"
 preserveAspectRatio="xMidYMid meet">

<g transform="translate(0.000000,130.000000) scale(0.100000,-0.100000)"
fill="#45C09F" stroke="none">
<path d="M1915 1201 c-87 -22 -121 -62 -132 -153 -5 -41 -13 -59 -35 -80 l-29
-27 38 -10 c21 -5 56 -13 78 -17 l40 -8 -60 -6 c-68 -7 -58 -15 27 -24 67 -7
108 5 108 33 0 29 17 35 30 11 6 -11 21 -20 33 -20 20 -1 20 -2 -5 -16 -16 -8
-28 -23 -28 -33 0 -10 -8 -25 -18 -34 -20 -18 -102 -37 -161 -37 -43 0 -98
-31 -110 -62 -74 -187 -89 -207 -194 -263 l-76 -40 -23 23 c-33 30 -49 28 -98
-13 -22 -19 -57 -37 -76 -41 -49 -9 -176 4 -264 28 -62 16 -119 20 -341 25
l-266 6 -7 -36 c-7 -38 -42 -73 -83 -83 -33 -9 -72 21 -91 67 -14 35 -18 39
-52 39 -48 0 -66 -30 -56 -97 3 -26 10 -51 14 -55 4 -4 187 -9 407 -10 386 -3
403 -2 472 19 100 30 253 39 318 19 28 -9 80 -16 117 -16 l67 0 61 -73 c69
-80 105 -108 129 -100 28 10 73 56 112 117 36 55 39 57 39 30 0 -16 -14 -58
-30 -92 -17 -35 -30 -70 -30 -78 0 -21 40 -26 167 -22 107 4 124 7 187 36 38
18 67 34 65 37 -3 2 -41 -2 -84 -10 -80 -14 -173 -20 -163 -10 3 3 38 15 78
26 118 32 234 109 270 177 l12 24 -44 -25 c-56 -33 -216 -89 -243 -85 -13 2
13 19 78 51 181 89 307 249 307 390 0 50 -20 127 -34 127 -2 0 -2 -27 1 -59 5
-52 2 -66 -20 -104 -48 -82 -283 -188 -492 -222 -82 -13 -102 -24 -119 -65
-17 -44 -33 -54 -93 -64 -74 -11 -117 25 -98 83 7 22 100 78 264 161 87 43
118 54 193 63 70 9 88 14 88 27 0 19 69 128 93 149 28 23 19 39 -33 56 -27 9
-52 21 -55 26 -3 5 8 41 26 80 24 57 30 80 25 111 -10 60 -35 115 -62 133 -29
19 -98 27 -139 16z m136 -246 c0 -5 -9 -16 -20 -24 -18 -12 -22 -11 -27 4 -4
10 -1 21 7 26 17 11 40 8 40 -6z"/>
<path d="M753 940 c-50 -22 -74 -56 -80 -114 -5 -38 -2 -48 20 -70 21 -20 36
-26 72 -26 48 0 85 13 85 30 0 6 -22 10 -48 10 -63 0 -87 23 -78 74 8 43 17
49 81 56 58 6 67 27 19 46 -26 11 -36 10 -71 -6z"/>
<path d="M230 928 c-100 -69 -78 -198 34 -198 47 0 83 20 71 39 -5 9 -19 11
-42 6 -67 -12 -97 52 -48 100 18 18 35 25 65 25 28 0 43 5 47 16 15 39 -75 47
-127 12z"/>
<path d="M406 923 c-10 -34 -26 -137 -26 -166 0 -24 4 -28 23 -25 16 2 23 11
25 33 6 48 19 50 41 6 16 -31 27 -41 46 -41 29 0 29 2 13 46 -10 28 -9 36 4
51 22 24 38 67 30 80 -14 20 -52 33 -101 33 -39 0 -51 -4 -55 -17z m99 -42 c0
-17 -52 -34 -61 -20 -3 6 -3 17 0 25 8 20 61 15 61 -5z"/>
<path d="M600 903 c-5 -21 -13 -68 -16 -105 -7 -64 -6 -68 14 -68 22 0 24 6
42 123 6 37 8 72 5 78 -13 20 -35 7 -45 -28z"/>
<path d="M905 928 c-10 -31 -20 -190 -12 -195 12 -8 30 13 43 49 l10 31 33
-42 c27 -34 39 -41 68 -41 l35 0 -30 38 c-56 72 -56 72 -4 125 44 45 45 47 21
47 -16 0 -44 -16 -72 -40 l-46 -41 -3 38 c-2 27 -8 39 -21 41 -9 2 -19 -2 -22
-10z"/>
<path d="M1115 863 c-14 -142 -21 -128 64 -128 79 0 109 18 49 30 -65 13 -70
15 -57 31 6 8 21 14 33 14 29 0 61 24 52 38 -4 7 -17 12 -29 12 -28 0 -54 16
-43 27 4 4 26 12 49 18 65 15 50 30 -34 33 l-76 3 -8 -78z"/>
<path d="M1307 934 c-13 -13 -7 -24 18 -34 24 -9 24 -11 18 -91 l-6 -81 24 4
c22 3 25 10 36 78 6 41 12 76 12 78 1 2 15 8 31 14 51 17 29 33 -51 36 -41 1
-78 0 -82 -4z"/>
<path d="M1895 853 c-11 -3 -24 -9 -29 -14 -6 -5 -23 -9 -38 -9 -15 0 -28 -4
-28 -10 0 -11 81 -12 120 -1 30 8 41 42 13 40 -10 -1 -27 -3 -38 -6z"/>
<path d="M221 654 c0 -11 3 -14 6 -6 3 7 2 16 -1 19 -3 4 -6 -2 -5 -13z"/>
<path d="M826 661 c-4 -7 -5 -15 -2 -18 9 -9 19 4 14 18 -4 11 -6 11 -12 0z"/>
<path d="M926 662 c-3 -6 -1 -14 5 -17 15 -10 25 3 12 16 -7 7 -13 7 -17 1z"/>
<path d="M1150 655 c0 -8 5 -15 10 -15 6 0 10 7 10 15 0 8 -4 15 -10 15 -5 0
-10 -7 -10 -15z"/>
<path d="M1260 656 c0 -9 5 -16 10 -16 6 0 10 4 10 9 0 6 -4 13 -10 16 -5 3
-10 -1 -10 -9z"/>
<path d="M1355 659 c-10 -15 3 -25 16 -12 7 7 7 13 1 17 -6 3 -14 1 -17 -5z"/>
<path d="M307 654 c-11 -11 3 -24 18 -18 8 4 12 10 9 15 -6 11 -18 12 -27 3z"/>
<path d="M417 653 c-12 -11 -8 -23 8 -23 8 0 15 7 15 15 0 16 -12 20 -23 8z"/>
<path d="M710 650 c0 -5 7 -10 15 -10 8 0 15 5 15 10 0 6 -7 10 -15 10 -8 0
-15 -4 -15 -10z"/>
<path d="M1040 650 c0 -5 7 -10 15 -10 8 0 15 5 15 10 0 6 -7 10 -15 10 -8 0
-15 -4 -15 -10z"/>
</g>
</svg>
